<svg id="Layer_1" data-name="Layer 1" xmlns="http://www.w3.org/2000/svg" xmlns:xlink="http://www.w3.org/1999/xlink" viewBox="0 0 192.99 192.99">
  <defs>
    <style>
      .cls-1 {
        fill: #fff;
      }

      .cls-1, .cls-2 {
        stroke: #231f20;
        stroke-width: 4px;
      }

      .cls-1, .cls-2, .cls-3 {
        stroke-miterlimit: 10;
      }

      .cls-2 {
        fill: url(#Orange_Yellow);
      }

      .cls-3 {
        fill: none;
        stroke: #f15a29;
      }
    </style>
    <linearGradient id="Orange_Yellow" data-name="Orange, Yellow" x1="328.21" y1="306" x2="468.22" y2="306" gradientUnits="userSpaceOnUse">
      <stop offset="0" stop-color="#fff33b"/>
      <stop offset="0.04" stop-color="#fee72e"/>
      <stop offset="0.12" stop-color="#fed51b"/>
      <stop offset="0.2" stop-color="#fdca10"/>
      <stop offset="0.28" stop-color="#fdc70c"/>
      <stop offset="0.67" stop-color="#f3903f"/>
      <stop offset="0.89" stop-color="#ed683c"/>
      <stop offset="1" stop-color="#e93e3a"/>
    </linearGradient>
  </defs>
  <title>fire</title>
  <circle id="background" class="cls-1" cx="96.49" cy="96.49" r="94.49"/>
  <path id="flame" class="cls-2" d="M391.45,224s-28.43,17.56-14.22,57.7,5.12,51.85,5.12,51.85-2.61-33.45-23.51-46.83-15.89-28.5-15.89-28.5-24.25,19.92-8.36,43,12.54,36.48,12.54,36.48-15-13.38-17.94-26.76-1.29,67.73,36.34,75.26,71.08-10.66,71.08-10.66,41.81-36.38,29.27-74.32c0,0-8.36.53-17.56,15.58s8.36-55.19,8.36-55.19-.84-12.54-10.87-25.09c0,0,2.51,13-14.22,29.9s-14.22,41.35-14.22,41.35S423.22,225.65,391.45,224Z" transform="translate(-298.72 -209.51)"/>
  <g id="details">
    <path id="details1" class="cls-3" d="M398.22,328.5s1.71-27.61-6.77-62.09,0-34.16,0-34.16" transform="translate(-298.72 -209.51)"/>
    <path id="details3" class="cls-3" d="M383.92,370.18s27.6,8.49,41.81-19.1,3.34-41.81,10.87-55.19" transform="translate(-298.72 -209.51)"/>
    <path id="details2" class="cls-3" d="M383.92,354.43s-9.2,4.18-22.58-27.6-20.07-37.63-20.07-37.63" transform="translate(-298.72 -209.51)"/>
  </g>
</svg>
